<mxfile host="app.diagrams.net" agent="Mozilla/5.0 (Macintosh; Intel Mac OS X 10_15_7) AppleWebKit/537.36 (KHTML, like Gecko) Chrome/128.0.0.0 Safari/537.36" version="24.7.16">
  <diagram name="Page-1" id="2cc2dc42-3aac-f2a9-1cec-7a8b7cbee084">
    <mxGraphModel dx="1247" dy="756" grid="1" gridSize="10" guides="1" tooltips="1" connect="1" arrows="1" fold="1" page="1" pageScale="1" pageWidth="1100" pageHeight="850" background="none" math="0" shadow="0">
      <root>
        <mxCell id="0" />
        <mxCell id="1" parent="0" />
        <mxCell id="bHBYjKBn6t6AVG68IqQf-1" value="Window Title" style="strokeWidth=1;shadow=0;dashed=0;align=center;html=1;shape=mxgraph.mockup.containers.window;align=left;verticalAlign=top;spacingLeft=8;strokeColor2=#008cff;strokeColor3=#c4c4c4;fontColor=#666666;mainText=;fontSize=17;labelBackgroundColor=none;whiteSpace=wrap;sketch=1;hachureGap=4;jiggle=2;curveFitting=1;fontFamily=Architects Daughter;fontSource=https%3A%2F%2Ffonts.googleapis.com%2Fcss%3Ffamily%3DArchitects%2BDaughter;fontStyle=1" vertex="1" parent="1">
          <mxGeometry x="70" y="60" width="4070" height="2430" as="geometry" />
        </mxCell>
        <mxCell id="bHBYjKBn6t6AVG68IqQf-2" value="" style="shape=mxgraph.mockup.containers.marginRect;rectMarginTop=10;strokeColor=#666666;strokeWidth=1;dashed=0;rounded=1;arcSize=5;recursiveResize=0;html=1;whiteSpace=wrap;sketch=1;hachureGap=4;jiggle=2;curveFitting=1;fontFamily=Architects Daughter;fontSource=https%3A%2F%2Ffonts.googleapis.com%2Fcss%3Ffamily%3DArchitects%2BDaughter;fontStyle=1" vertex="1" parent="1">
          <mxGeometry x="720" y="240" width="760" height="350" as="geometry" />
        </mxCell>
        <mxCell id="bHBYjKBn6t6AVG68IqQf-3" value="&lt;font size=&quot;1&quot; color=&quot;#141414&quot;&gt;&lt;b style=&quot;font-size: 22px;&quot;&gt;Tool Block&lt;/b&gt;&lt;/font&gt;" style="shape=rect;strokeColor=none;fillColor=#008cff;strokeWidth=1;dashed=0;rounded=1;arcSize=20;fontColor=#ffffff;fontSize=17;spacing=2;spacingTop=-2;align=left;autosize=1;spacingLeft=4;resizeWidth=0;resizeHeight=0;perimeter=none;html=1;whiteSpace=wrap;sketch=1;hachureGap=4;jiggle=2;curveFitting=1;fontFamily=Architects Daughter;fontSource=https%3A%2F%2Ffonts.googleapis.com%2Fcss%3Ffamily%3DArchitects%2BDaughter;" vertex="1" parent="bHBYjKBn6t6AVG68IqQf-2">
          <mxGeometry x="5" y="-5" width="135" height="40" as="geometry" />
        </mxCell>
        <mxCell id="bHBYjKBn6t6AVG68IqQf-4" value="&lt;font style=&quot;font-size: 20px;&quot;&gt;Generating text...&lt;/font&gt;" style="shape=mxgraph.mockup.containers.marginRect;rectMarginTop=10;strokeColor=#b85450;strokeWidth=1;dashed=0;rounded=1;arcSize=5;recursiveResize=0;html=1;whiteSpace=wrap;sketch=1;hachureGap=4;jiggle=2;curveFitting=1;fontFamily=Architects Daughter;fontSource=https%3A%2F%2Ffonts.googleapis.com%2Fcss%3Ffamily%3DArchitects%2BDaughter;fillColor=#f8cecc;" vertex="1" parent="bHBYjKBn6t6AVG68IqQf-2">
          <mxGeometry x="30" y="155" width="680" height="60" as="geometry" />
        </mxCell>
        <mxCell id="bHBYjKBn6t6AVG68IqQf-10" value="&lt;span style=&quot;font-size: 20px;&quot;&gt;Streaming text...&lt;/span&gt;" style="shape=mxgraph.mockup.containers.marginRect;rectMarginTop=10;strokeColor=#b85450;strokeWidth=1;dashed=0;rounded=1;arcSize=5;recursiveResize=0;html=1;whiteSpace=wrap;sketch=1;hachureGap=4;jiggle=2;curveFitting=1;fontFamily=Architects Daughter;fontSource=https%3A%2F%2Ffonts.googleapis.com%2Fcss%3Ffamily%3DArchitects%2BDaughter;fillColor=#f8cecc;" vertex="1" parent="bHBYjKBn6t6AVG68IqQf-2">
          <mxGeometry x="30" y="250" width="680" height="60" as="geometry" />
        </mxCell>
        <mxCell id="bHBYjKBn6t6AVG68IqQf-11" value="&lt;span style=&quot;font-size: 20px;&quot;&gt;Prompt input&lt;/span&gt;" style="shape=mxgraph.mockup.containers.marginRect;rectMarginTop=10;strokeColor=#666666;strokeWidth=1;dashed=0;rounded=1;arcSize=5;recursiveResize=0;html=1;whiteSpace=wrap;sketch=1;hachureGap=4;jiggle=2;curveFitting=1;fontFamily=Architects Daughter;fontSource=https%3A%2F%2Ffonts.googleapis.com%2Fcss%3Ffamily%3DArchitects%2BDaughter;" vertex="1" parent="bHBYjKBn6t6AVG68IqQf-2">
          <mxGeometry x="30" y="60" width="680" height="60" as="geometry" />
        </mxCell>
        <UserObject label="Margin: 20px 0 0 0" placeholders="1" name="Variable" id="bHBYjKBn6t6AVG68IqQf-28">
          <mxCell style="text;html=1;strokeColor=none;fillColor=none;align=center;verticalAlign=middle;whiteSpace=wrap;overflow=hidden;fontFamily=Architects Daughter;fontSource=https%3A%2F%2Ffonts.googleapis.com%2Fcss%3Ffamily%3DArchitects%2BDaughter;fontStyle=1;fontSize=15;labelBackgroundColor=#FF9999;" vertex="1" parent="bHBYjKBn6t6AVG68IqQf-2">
            <mxGeometry x="260" y="144" width="220" height="20" as="geometry" />
          </mxCell>
        </UserObject>
        <UserObject label="Margin: 32px 0 0 0" placeholders="1" name="Variable" id="bHBYjKBn6t6AVG68IqQf-29">
          <mxCell style="text;html=1;strokeColor=none;fillColor=none;align=center;verticalAlign=middle;whiteSpace=wrap;overflow=hidden;fontFamily=Architects Daughter;fontSource=https%3A%2F%2Ffonts.googleapis.com%2Fcss%3Ffamily%3DArchitects%2BDaughter;fontStyle=1;fontSize=15;labelBackgroundColor=#FF9999;" vertex="1" parent="bHBYjKBn6t6AVG68IqQf-2">
            <mxGeometry x="260" y="240" width="220" height="20" as="geometry" />
          </mxCell>
        </UserObject>
        <mxCell id="bHBYjKBn6t6AVG68IqQf-12" value="" style="shape=mxgraph.mockup.containers.marginRect;rectMarginTop=10;strokeColor=#b85450;strokeWidth=1;dashed=0;rounded=1;arcSize=5;recursiveResize=0;html=1;whiteSpace=wrap;sketch=1;hachureGap=4;jiggle=2;curveFitting=1;fontFamily=Architects Daughter;fontSource=https%3A%2F%2Ffonts.googleapis.com%2Fcss%3Ffamily%3DArchitects%2BDaughter;fillColor=#f8cecc;" vertex="1" parent="1">
          <mxGeometry x="720" y="820" width="760" height="350" as="geometry" />
        </mxCell>
        <mxCell id="bHBYjKBn6t6AVG68IqQf-13" value="&lt;font size=&quot;1&quot; color=&quot;#141414&quot;&gt;&lt;b style=&quot;font-size: 22px;&quot;&gt;Tool Block&lt;/b&gt;&lt;/font&gt;" style="shape=rect;strokeColor=none;fillColor=#008cff;strokeWidth=1;dashed=0;rounded=1;arcSize=20;fontColor=#ffffff;fontSize=17;spacing=2;spacingTop=-2;align=left;autosize=1;spacingLeft=4;resizeWidth=0;resizeHeight=0;perimeter=none;html=1;whiteSpace=wrap;sketch=1;hachureGap=4;jiggle=2;curveFitting=1;fontFamily=Architects Daughter;fontSource=https%3A%2F%2Ffonts.googleapis.com%2Fcss%3Ffamily%3DArchitects%2BDaughter;" vertex="1" parent="bHBYjKBn6t6AVG68IqQf-12">
          <mxGeometry x="5" y="-5" width="135" height="40" as="geometry" />
        </mxCell>
        <mxCell id="bHBYjKBn6t6AVG68IqQf-14" value="&lt;font style=&quot;font-size: 20px;&quot;&gt;Generating text...&lt;/font&gt;" style="shape=mxgraph.mockup.containers.marginRect;rectMarginTop=10;strokeColor=#b85450;strokeWidth=1;dashed=0;rounded=1;arcSize=5;recursiveResize=0;html=1;whiteSpace=wrap;sketch=1;hachureGap=4;jiggle=2;curveFitting=1;fontFamily=Architects Daughter;fontSource=https%3A%2F%2Ffonts.googleapis.com%2Fcss%3Ffamily%3DArchitects%2BDaughter;fillColor=#f8cecc;" vertex="1" parent="bHBYjKBn6t6AVG68IqQf-12">
          <mxGeometry x="30" y="155" width="680" height="60" as="geometry" />
        </mxCell>
        <mxCell id="bHBYjKBn6t6AVG68IqQf-15" value="&lt;span style=&quot;font-size: 20px;&quot;&gt;Streaming text...&lt;/span&gt;" style="shape=mxgraph.mockup.containers.marginRect;rectMarginTop=10;strokeColor=#b85450;strokeWidth=1;dashed=0;rounded=1;arcSize=5;recursiveResize=0;html=1;whiteSpace=wrap;sketch=1;hachureGap=4;jiggle=2;curveFitting=1;fontFamily=Architects Daughter;fontSource=https%3A%2F%2Ffonts.googleapis.com%2Fcss%3Ffamily%3DArchitects%2BDaughter;fillColor=#f8cecc;" vertex="1" parent="bHBYjKBn6t6AVG68IqQf-12">
          <mxGeometry x="30" y="250" width="680" height="60" as="geometry" />
        </mxCell>
        <mxCell id="bHBYjKBn6t6AVG68IqQf-16" value="&lt;span style=&quot;font-size: 20px;&quot;&gt;Prompt input&lt;/span&gt;" style="shape=mxgraph.mockup.containers.marginRect;rectMarginTop=10;strokeColor=#b85450;strokeWidth=1;dashed=0;rounded=1;arcSize=5;recursiveResize=0;html=1;whiteSpace=wrap;sketch=1;hachureGap=4;jiggle=2;curveFitting=1;fontFamily=Architects Daughter;fontSource=https%3A%2F%2Ffonts.googleapis.com%2Fcss%3Ffamily%3DArchitects%2BDaughter;fillColor=#f8cecc;" vertex="1" parent="bHBYjKBn6t6AVG68IqQf-12">
          <mxGeometry x="30" y="60" width="680" height="60" as="geometry" />
        </mxCell>
        <mxCell id="bHBYjKBn6t6AVG68IqQf-17" value="" style="shape=mxgraph.mockup.containers.marginRect;rectMarginTop=10;strokeColor=#666666;strokeWidth=1;dashed=0;rounded=1;arcSize=5;recursiveResize=0;html=1;whiteSpace=wrap;sketch=1;hachureGap=4;jiggle=2;curveFitting=1;fontFamily=Architects Daughter;fontSource=https%3A%2F%2Ffonts.googleapis.com%2Fcss%3Ffamily%3DArchitects%2BDaughter;" vertex="1" parent="1">
          <mxGeometry x="720" y="1400" width="760" height="350" as="geometry" />
        </mxCell>
        <mxCell id="bHBYjKBn6t6AVG68IqQf-18" value="&lt;font size=&quot;1&quot; color=&quot;#141414&quot;&gt;&lt;b style=&quot;font-size: 22px;&quot;&gt;Tool Block&lt;/b&gt;&lt;/font&gt;" style="shape=rect;strokeColor=none;fillColor=#008cff;strokeWidth=1;dashed=0;rounded=1;arcSize=20;fontColor=#ffffff;fontSize=17;spacing=2;spacingTop=-2;align=left;autosize=1;spacingLeft=4;resizeWidth=0;resizeHeight=0;perimeter=none;html=1;whiteSpace=wrap;sketch=1;hachureGap=4;jiggle=2;curveFitting=1;fontFamily=Architects Daughter;fontSource=https%3A%2F%2Ffonts.googleapis.com%2Fcss%3Ffamily%3DArchitects%2BDaughter;" vertex="1" parent="bHBYjKBn6t6AVG68IqQf-17">
          <mxGeometry x="5" y="-5" width="135" height="40" as="geometry" />
        </mxCell>
        <mxCell id="bHBYjKBn6t6AVG68IqQf-19" value="&lt;font style=&quot;font-size: 20px;&quot;&gt;Generating text...&lt;/font&gt;" style="shape=mxgraph.mockup.containers.marginRect;rectMarginTop=10;strokeColor=#b85450;strokeWidth=1;dashed=0;rounded=1;arcSize=5;recursiveResize=0;html=1;whiteSpace=wrap;sketch=1;hachureGap=4;jiggle=2;curveFitting=1;fontFamily=Architects Daughter;fontSource=https%3A%2F%2Ffonts.googleapis.com%2Fcss%3Ffamily%3DArchitects%2BDaughter;fillColor=#f8cecc;" vertex="1" parent="bHBYjKBn6t6AVG68IqQf-17">
          <mxGeometry x="30" y="155" width="680" height="60" as="geometry" />
        </mxCell>
        <mxCell id="bHBYjKBn6t6AVG68IqQf-20" value="&lt;span style=&quot;font-size: 20px;&quot;&gt;Streaming text...&lt;/span&gt;" style="shape=mxgraph.mockup.containers.marginRect;rectMarginTop=10;strokeColor=#b85450;strokeWidth=1;dashed=0;rounded=1;arcSize=5;recursiveResize=0;html=1;whiteSpace=wrap;sketch=1;hachureGap=4;jiggle=2;curveFitting=1;fontFamily=Architects Daughter;fontSource=https%3A%2F%2Ffonts.googleapis.com%2Fcss%3Ffamily%3DArchitects%2BDaughter;fillColor=#f8cecc;" vertex="1" parent="bHBYjKBn6t6AVG68IqQf-17">
          <mxGeometry x="30" y="250" width="680" height="60" as="geometry" />
        </mxCell>
        <mxCell id="bHBYjKBn6t6AVG68IqQf-21" value="&lt;span style=&quot;font-size: 20px;&quot;&gt;Prompt input&lt;/span&gt;" style="shape=mxgraph.mockup.containers.marginRect;rectMarginTop=10;strokeColor=#666666;strokeWidth=1;dashed=0;rounded=1;arcSize=5;recursiveResize=0;html=1;whiteSpace=wrap;sketch=1;hachureGap=4;jiggle=2;curveFitting=1;fontFamily=Architects Daughter;fontSource=https%3A%2F%2Ffonts.googleapis.com%2Fcss%3Ffamily%3DArchitects%2BDaughter;" vertex="1" parent="bHBYjKBn6t6AVG68IqQf-17">
          <mxGeometry x="30" y="60" width="680" height="60" as="geometry" />
        </mxCell>
        <mxCell id="bHBYjKBn6t6AVG68IqQf-22" value="" style="shape=mxgraph.mockup.containers.marginRect;rectMarginTop=10;strokeColor=#b85450;strokeWidth=1;dashed=0;rounded=1;arcSize=5;recursiveResize=0;html=1;whiteSpace=wrap;sketch=1;hachureGap=4;jiggle=2;curveFitting=1;fontFamily=Architects Daughter;fontSource=https%3A%2F%2Ffonts.googleapis.com%2Fcss%3Ffamily%3DArchitects%2BDaughter;fillColor=#f8cecc;" vertex="1" parent="1">
          <mxGeometry x="720" y="2000" width="760" height="350" as="geometry" />
        </mxCell>
        <mxCell id="bHBYjKBn6t6AVG68IqQf-23" value="&lt;font size=&quot;1&quot; color=&quot;#141414&quot;&gt;&lt;b style=&quot;font-size: 22px;&quot;&gt;Tool Block&lt;/b&gt;&lt;/font&gt;" style="shape=rect;strokeColor=none;fillColor=#008cff;strokeWidth=1;dashed=0;rounded=1;arcSize=20;fontColor=#ffffff;fontSize=17;spacing=2;spacingTop=-2;align=left;autosize=1;spacingLeft=4;resizeWidth=0;resizeHeight=0;perimeter=none;html=1;whiteSpace=wrap;sketch=1;hachureGap=4;jiggle=2;curveFitting=1;fontFamily=Architects Daughter;fontSource=https%3A%2F%2Ffonts.googleapis.com%2Fcss%3Ffamily%3DArchitects%2BDaughter;" vertex="1" parent="bHBYjKBn6t6AVG68IqQf-22">
          <mxGeometry x="5" y="-5" width="135" height="40" as="geometry" />
        </mxCell>
        <mxCell id="bHBYjKBn6t6AVG68IqQf-24" value="&lt;font style=&quot;font-size: 20px;&quot;&gt;Generating text...&lt;/font&gt;" style="shape=mxgraph.mockup.containers.marginRect;rectMarginTop=10;strokeColor=#b85450;strokeWidth=1;dashed=0;rounded=1;arcSize=5;recursiveResize=0;html=1;whiteSpace=wrap;sketch=1;hachureGap=4;jiggle=2;curveFitting=1;fontFamily=Architects Daughter;fontSource=https%3A%2F%2Ffonts.googleapis.com%2Fcss%3Ffamily%3DArchitects%2BDaughter;fillColor=#f8cecc;" vertex="1" parent="bHBYjKBn6t6AVG68IqQf-22">
          <mxGeometry x="30" y="155" width="680" height="60" as="geometry" />
        </mxCell>
        <mxCell id="bHBYjKBn6t6AVG68IqQf-25" value="&lt;span style=&quot;font-size: 20px;&quot;&gt;Streaming text&lt;/span&gt;" style="shape=mxgraph.mockup.containers.marginRect;rectMarginTop=10;strokeColor=#b85450;strokeWidth=1;dashed=0;rounded=1;arcSize=5;recursiveResize=0;html=1;whiteSpace=wrap;sketch=1;hachureGap=4;jiggle=2;curveFitting=1;fontFamily=Architects Daughter;fontSource=https%3A%2F%2Ffonts.googleapis.com%2Fcss%3Ffamily%3DArchitects%2BDaughter;fillColor=#f8cecc;" vertex="1" parent="bHBYjKBn6t6AVG68IqQf-22">
          <mxGeometry x="30" y="250" width="680" height="60" as="geometry" />
        </mxCell>
        <mxCell id="bHBYjKBn6t6AVG68IqQf-26" value="&lt;span style=&quot;font-size: 20px;&quot;&gt;Prompt input&lt;/span&gt;" style="shape=mxgraph.mockup.containers.marginRect;rectMarginTop=10;strokeColor=#b85450;strokeWidth=1;dashed=0;rounded=1;arcSize=5;recursiveResize=0;html=1;whiteSpace=wrap;sketch=1;hachureGap=4;jiggle=2;curveFitting=1;fontFamily=Architects Daughter;fontSource=https%3A%2F%2Ffonts.googleapis.com%2Fcss%3Ffamily%3DArchitects%2BDaughter;fillColor=#f8cecc;" vertex="1" parent="bHBYjKBn6t6AVG68IqQf-22">
          <mxGeometry x="30" y="60" width="680" height="60" as="geometry" />
        </mxCell>
        <UserObject label="Margin: 20px 0 8px 0" placeholders="1" name="Variable" id="bHBYjKBn6t6AVG68IqQf-27">
          <mxCell style="text;html=1;strokeColor=none;fillColor=none;align=center;verticalAlign=middle;whiteSpace=wrap;overflow=hidden;fontFamily=Architects Daughter;fontSource=https%3A%2F%2Ffonts.googleapis.com%2Fcss%3Ffamily%3DArchitects%2BDaughter;fontStyle=1;fontSize=15;labelBackgroundColor=#FF9999;" vertex="1" parent="1">
            <mxGeometry x="990" y="231" width="220" height="20" as="geometry" />
          </mxCell>
        </UserObject>
        <mxCell id="bHBYjKBn6t6AVG68IqQf-30" value="Hide Tool" style="text;strokeColor=none;fillColor=none;html=1;fontSize=24;fontStyle=1;verticalAlign=middle;align=center;fontFamily=Architects Daughter;fontSource=https%3A%2F%2Ffonts.googleapis.com%2Fcss%3Ffamily%3DArchitects%2BDaughter;" vertex="1" parent="1">
          <mxGeometry x="440" y="970" width="100" height="40" as="geometry" />
        </mxCell>
        <mxCell id="bHBYjKBn6t6AVG68IqQf-31" value="Hide Tool Output" style="text;strokeColor=none;fillColor=none;html=1;fontSize=24;fontStyle=1;verticalAlign=middle;align=center;fontFamily=Architects Daughter;fontSource=https%3A%2F%2Ffonts.googleapis.com%2Fcss%3Ffamily%3DArchitects%2BDaughter;" vertex="1" parent="1">
          <mxGeometry x="440" y="1555" width="100" height="40" as="geometry" />
        </mxCell>
        <mxCell id="bHBYjKBn6t6AVG68IqQf-32" value="Hide Tool &amp;amp; Hide Tool Output" style="text;strokeColor=none;fillColor=none;html=1;fontSize=24;fontStyle=1;verticalAlign=middle;align=center;fontFamily=Architects Daughter;fontSource=https%3A%2F%2Ffonts.googleapis.com%2Fcss%3Ffamily%3DArchitects%2BDaughter;" vertex="1" parent="1">
          <mxGeometry x="450" y="2155" width="100" height="40" as="geometry" />
        </mxCell>
        <mxCell id="bHBYjKBn6t6AVG68IqQf-33" value="Normal" style="text;strokeColor=none;fillColor=none;html=1;fontSize=24;fontStyle=1;verticalAlign=middle;align=center;fontFamily=Architects Daughter;fontSource=https%3A%2F%2Ffonts.googleapis.com%2Fcss%3Ffamily%3DArchitects%2BDaughter;" vertex="1" parent="1">
          <mxGeometry x="440" y="395" width="100" height="40" as="geometry" />
        </mxCell>
        <UserObject label="margin: 0;&lt;br&gt;height: 0;" placeholders="1" name="Variable" id="bHBYjKBn6t6AVG68IqQf-35">
          <mxCell style="text;html=1;strokeColor=none;fillColor=none;align=center;verticalAlign=middle;whiteSpace=wrap;overflow=hidden;fontFamily=Architects Daughter;fontSource=https%3A%2F%2Ffonts.googleapis.com%2Fcss%3Ffamily%3DArchitects%2BDaughter;fontStyle=1;fontSize=15;labelBackgroundColor=#FF9999;" vertex="1" parent="1">
            <mxGeometry x="1050" y="790" width="100" height="40" as="geometry" />
          </mxCell>
        </UserObject>
        <mxCell id="bHBYjKBn6t6AVG68IqQf-36" value="" style="shape=mxgraph.mockup.containers.marginRect;rectMarginTop=10;strokeColor=#666666;strokeWidth=1;dashed=0;rounded=1;arcSize=5;recursiveResize=0;html=1;whiteSpace=wrap;sketch=1;hachureGap=4;jiggle=2;curveFitting=1;fontFamily=Architects Daughter;fontSource=https%3A%2F%2Ffonts.googleapis.com%2Fcss%3Ffamily%3DArchitects%2BDaughter;" vertex="1" parent="1">
          <mxGeometry x="1860" y="820" width="760" height="350" as="geometry" />
        </mxCell>
        <mxCell id="bHBYjKBn6t6AVG68IqQf-37" value="&lt;font size=&quot;1&quot; color=&quot;#141414&quot;&gt;&lt;b style=&quot;font-size: 22px;&quot;&gt;Tool Block&lt;/b&gt;&lt;/font&gt;" style="shape=rect;strokeColor=none;fillColor=#008cff;strokeWidth=1;dashed=0;rounded=1;arcSize=20;fontColor=#ffffff;fontSize=17;spacing=2;spacingTop=-2;align=left;autosize=1;spacingLeft=4;resizeWidth=0;resizeHeight=0;perimeter=none;html=1;whiteSpace=wrap;sketch=1;hachureGap=4;jiggle=2;curveFitting=1;fontFamily=Architects Daughter;fontSource=https%3A%2F%2Ffonts.googleapis.com%2Fcss%3Ffamily%3DArchitects%2BDaughter;" vertex="1" parent="bHBYjKBn6t6AVG68IqQf-36">
          <mxGeometry x="5" y="-5" width="135" height="40" as="geometry" />
        </mxCell>
        <mxCell id="bHBYjKBn6t6AVG68IqQf-38" value="&lt;font style=&quot;font-size: 20px;&quot;&gt;Generating text...&lt;/font&gt;" style="shape=mxgraph.mockup.containers.marginRect;rectMarginTop=10;strokeColor=#666666;strokeWidth=1;dashed=0;rounded=1;arcSize=5;recursiveResize=0;html=1;whiteSpace=wrap;sketch=1;hachureGap=4;jiggle=2;curveFitting=1;fontFamily=Architects Daughter;fontSource=https%3A%2F%2Ffonts.googleapis.com%2Fcss%3Ffamily%3DArchitects%2BDaughter;" vertex="1" parent="bHBYjKBn6t6AVG68IqQf-36">
          <mxGeometry x="30" y="155" width="680" height="60" as="geometry" />
        </mxCell>
        <mxCell id="bHBYjKBn6t6AVG68IqQf-39" value="&lt;span style=&quot;font-size: 20px;&quot;&gt;Streaming text...&lt;/span&gt;" style="shape=mxgraph.mockup.containers.marginRect;rectMarginTop=10;strokeColor=#b85450;strokeWidth=1;dashed=0;rounded=1;arcSize=5;recursiveResize=0;html=1;whiteSpace=wrap;sketch=1;hachureGap=4;jiggle=2;curveFitting=1;fontFamily=Architects Daughter;fontSource=https%3A%2F%2Ffonts.googleapis.com%2Fcss%3Ffamily%3DArchitects%2BDaughter;fillColor=#f8cecc;" vertex="1" parent="bHBYjKBn6t6AVG68IqQf-36">
          <mxGeometry x="30" y="250" width="680" height="60" as="geometry" />
        </mxCell>
        <mxCell id="bHBYjKBn6t6AVG68IqQf-40" value="&lt;span style=&quot;font-size: 20px;&quot;&gt;Prompt input&lt;/span&gt;" style="shape=mxgraph.mockup.containers.marginRect;rectMarginTop=10;strokeColor=#b85450;strokeWidth=1;dashed=0;rounded=1;arcSize=5;recursiveResize=0;html=1;whiteSpace=wrap;sketch=1;hachureGap=4;jiggle=2;curveFitting=1;fontFamily=Architects Daughter;fontSource=https%3A%2F%2Ffonts.googleapis.com%2Fcss%3Ffamily%3DArchitects%2BDaughter;fillColor=#f8cecc;" vertex="1" parent="bHBYjKBn6t6AVG68IqQf-36">
          <mxGeometry x="30" y="60" width="680" height="60" as="geometry" />
        </mxCell>
        <UserObject label="margin: 0;&lt;br&gt;height: 0;" placeholders="1" name="Variable" id="bHBYjKBn6t6AVG68IqQf-43">
          <mxCell style="text;html=1;strokeColor=none;fillColor=none;align=center;verticalAlign=middle;whiteSpace=wrap;overflow=hidden;fontFamily=Architects Daughter;fontSource=https%3A%2F%2Ffonts.googleapis.com%2Fcss%3Ffamily%3DArchitects%2BDaughter;fontStyle=1;fontSize=15;labelBackgroundColor=#FF9999;" vertex="1" parent="bHBYjKBn6t6AVG68IqQf-36">
            <mxGeometry x="320" y="30" width="100" height="44" as="geometry" />
          </mxCell>
        </UserObject>
        <UserObject label="margin: 0;&lt;br&gt;height: 0;" placeholders="1" name="Variable" id="bHBYjKBn6t6AVG68IqQf-94">
          <mxCell style="text;html=1;strokeColor=none;fillColor=none;align=center;verticalAlign=middle;whiteSpace=wrap;overflow=hidden;fontFamily=Architects Daughter;fontSource=https%3A%2F%2Ffonts.googleapis.com%2Fcss%3Ffamily%3DArchitects%2BDaughter;fontStyle=1;fontSize=15;labelBackgroundColor=#FF9999;" vertex="1" parent="bHBYjKBn6t6AVG68IqQf-36">
            <mxGeometry x="320" y="220" width="100" height="44" as="geometry" />
          </mxCell>
        </UserObject>
        <mxCell id="bHBYjKBn6t6AVG68IqQf-41" value="" style="endArrow=classic;html=1;rounded=0;sketch=1;hachureGap=4;jiggle=2;curveFitting=1;fontFamily=Architects Daughter;fontSource=https%3A%2F%2Ffonts.googleapis.com%2Fcss%3Ffamily%3DArchitects%2BDaughter;fontSize=12;startSize=8;endSize=8;curved=1;exitX=1.013;exitY=0.571;exitDx=0;exitDy=0;exitPerimeter=0;entryX=0.002;entryY=0.577;entryDx=0;entryDy=0;entryPerimeter=0;" edge="1" parent="1" source="bHBYjKBn6t6AVG68IqQf-12" target="bHBYjKBn6t6AVG68IqQf-36">
          <mxGeometry relative="1" as="geometry">
            <mxPoint x="1600" y="1020" as="sourcePoint" />
            <mxPoint x="1700" y="1020" as="targetPoint" />
          </mxGeometry>
        </mxCell>
        <mxCell id="bHBYjKBn6t6AVG68IqQf-42" value="Generating..." style="edgeLabel;resizable=0;html=1;fontSize=26;;align=center;verticalAlign=middle;sketch=1;hachureGap=4;jiggle=2;curveFitting=1;fontFamily=Architects Daughter;fontSource=https%3A%2F%2Ffonts.googleapis.com%2Fcss%3Ffamily%3DArchitects%2BDaughter;fontStyle=1" connectable="0" vertex="1" parent="bHBYjKBn6t6AVG68IqQf-41">
          <mxGeometry relative="1" as="geometry" />
        </mxCell>
        <mxCell id="bHBYjKBn6t6AVG68IqQf-46" value="" style="endArrow=classic;html=1;rounded=0;sketch=1;hachureGap=4;jiggle=2;curveFitting=1;fontFamily=Architects Daughter;fontSource=https%3A%2F%2Ffonts.googleapis.com%2Fcss%3Ffamily%3DArchitects%2BDaughter;fontSize=12;startSize=8;endSize=8;curved=1;exitX=0.998;exitY=0.525;exitDx=0;exitDy=0;exitPerimeter=0;entryX=-0.002;entryY=0.479;entryDx=0;entryDy=0;entryPerimeter=0;" edge="1" parent="1" source="bHBYjKBn6t6AVG68IqQf-17" target="bHBYjKBn6t6AVG68IqQf-48">
          <mxGeometry relative="1" as="geometry">
            <mxPoint x="1488" y="1580" as="sourcePoint" />
            <mxPoint x="1860" y="1582" as="targetPoint" />
          </mxGeometry>
        </mxCell>
        <mxCell id="bHBYjKBn6t6AVG68IqQf-47" value="Generating..." style="edgeLabel;resizable=0;html=1;fontSize=26;;align=center;verticalAlign=middle;sketch=1;hachureGap=4;jiggle=2;curveFitting=1;fontFamily=Architects Daughter;fontSource=https%3A%2F%2Ffonts.googleapis.com%2Fcss%3Ffamily%3DArchitects%2BDaughter;fontStyle=1" connectable="0" vertex="1" parent="bHBYjKBn6t6AVG68IqQf-46">
          <mxGeometry relative="1" as="geometry" />
        </mxCell>
        <mxCell id="bHBYjKBn6t6AVG68IqQf-48" value="" style="shape=mxgraph.mockup.containers.marginRect;rectMarginTop=10;strokeColor=#666666;strokeWidth=1;dashed=0;rounded=1;arcSize=5;recursiveResize=0;html=1;whiteSpace=wrap;sketch=1;hachureGap=4;jiggle=2;curveFitting=1;fontFamily=Architects Daughter;fontSource=https%3A%2F%2Ffonts.googleapis.com%2Fcss%3Ffamily%3DArchitects%2BDaughter;" vertex="1" parent="1">
          <mxGeometry x="1860" y="1420" width="760" height="350" as="geometry" />
        </mxCell>
        <mxCell id="bHBYjKBn6t6AVG68IqQf-49" value="&lt;font size=&quot;1&quot; color=&quot;#141414&quot;&gt;&lt;b style=&quot;font-size: 22px;&quot;&gt;Tool Block&lt;/b&gt;&lt;/font&gt;" style="shape=rect;strokeColor=none;fillColor=#008cff;strokeWidth=1;dashed=0;rounded=1;arcSize=20;fontColor=#ffffff;fontSize=17;spacing=2;spacingTop=-2;align=left;autosize=1;spacingLeft=4;resizeWidth=0;resizeHeight=0;perimeter=none;html=1;whiteSpace=wrap;sketch=1;hachureGap=4;jiggle=2;curveFitting=1;fontFamily=Architects Daughter;fontSource=https%3A%2F%2Ffonts.googleapis.com%2Fcss%3Ffamily%3DArchitects%2BDaughter;" vertex="1" parent="bHBYjKBn6t6AVG68IqQf-48">
          <mxGeometry x="5" y="-5" width="135" height="40" as="geometry" />
        </mxCell>
        <mxCell id="bHBYjKBn6t6AVG68IqQf-50" value="&lt;font style=&quot;font-size: 20px;&quot;&gt;Generating text...&lt;/font&gt;" style="shape=mxgraph.mockup.containers.marginRect;rectMarginTop=10;strokeColor=#666666;strokeWidth=1;dashed=0;rounded=1;arcSize=5;recursiveResize=0;html=1;whiteSpace=wrap;sketch=1;hachureGap=4;jiggle=2;curveFitting=1;fontFamily=Architects Daughter;fontSource=https%3A%2F%2Ffonts.googleapis.com%2Fcss%3Ffamily%3DArchitects%2BDaughter;" vertex="1" parent="bHBYjKBn6t6AVG68IqQf-48">
          <mxGeometry x="30" y="155" width="680" height="60" as="geometry" />
        </mxCell>
        <mxCell id="bHBYjKBn6t6AVG68IqQf-51" value="&lt;span style=&quot;font-size: 20px;&quot;&gt;Streaming text...&lt;/span&gt;" style="shape=mxgraph.mockup.containers.marginRect;rectMarginTop=10;strokeColor=#b85450;strokeWidth=1;dashed=0;rounded=1;arcSize=5;recursiveResize=0;html=1;whiteSpace=wrap;sketch=1;hachureGap=4;jiggle=2;curveFitting=1;fontFamily=Architects Daughter;fontSource=https%3A%2F%2Ffonts.googleapis.com%2Fcss%3Ffamily%3DArchitects%2BDaughter;fillColor=#f8cecc;" vertex="1" parent="bHBYjKBn6t6AVG68IqQf-48">
          <mxGeometry x="30" y="250" width="680" height="60" as="geometry" />
        </mxCell>
        <mxCell id="bHBYjKBn6t6AVG68IqQf-52" value="&lt;span style=&quot;font-size: 20px;&quot;&gt;Prompt input&lt;/span&gt;" style="shape=mxgraph.mockup.containers.marginRect;rectMarginTop=10;strokeColor=#666666;strokeWidth=1;dashed=0;rounded=1;arcSize=5;recursiveResize=0;html=1;whiteSpace=wrap;sketch=1;hachureGap=4;jiggle=2;curveFitting=1;fontFamily=Architects Daughter;fontSource=https%3A%2F%2Ffonts.googleapis.com%2Fcss%3Ffamily%3DArchitects%2BDaughter;" vertex="1" parent="bHBYjKBn6t6AVG68IqQf-48">
          <mxGeometry x="30" y="60" width="680" height="60" as="geometry" />
        </mxCell>
        <UserObject label="margin: 0;&lt;br&gt;height: 0;" placeholders="1" name="Variable" id="bHBYjKBn6t6AVG68IqQf-95">
          <mxCell style="text;html=1;strokeColor=none;fillColor=none;align=center;verticalAlign=middle;whiteSpace=wrap;overflow=hidden;fontFamily=Architects Daughter;fontSource=https%3A%2F%2Ffonts.googleapis.com%2Fcss%3Ffamily%3DArchitects%2BDaughter;fontStyle=1;fontSize=15;labelBackgroundColor=#FF9999;" vertex="1" parent="bHBYjKBn6t6AVG68IqQf-48">
            <mxGeometry x="320" y="217" width="100" height="44" as="geometry" />
          </mxCell>
        </UserObject>
        <mxCell id="bHBYjKBn6t6AVG68IqQf-54" value="" style="endArrow=classic;html=1;rounded=0;sketch=1;hachureGap=4;jiggle=2;curveFitting=1;fontFamily=Architects Daughter;fontSource=https%3A%2F%2Ffonts.googleapis.com%2Fcss%3Ffamily%3DArchitects%2BDaughter;fontSize=12;startSize=8;endSize=8;curved=1;entryX=-0.003;entryY=0.52;entryDx=0;entryDy=0;entryPerimeter=0;exitX=1.004;exitY=0.54;exitDx=0;exitDy=0;exitPerimeter=0;" edge="1" parent="1" source="bHBYjKBn6t6AVG68IqQf-22" target="bHBYjKBn6t6AVG68IqQf-56">
          <mxGeometry relative="1" as="geometry">
            <mxPoint x="1490" y="2192" as="sourcePoint" />
            <mxPoint x="1880" y="2195" as="targetPoint" />
          </mxGeometry>
        </mxCell>
        <mxCell id="bHBYjKBn6t6AVG68IqQf-55" value="Generating..." style="edgeLabel;resizable=0;html=1;fontSize=26;;align=center;verticalAlign=middle;sketch=1;hachureGap=4;jiggle=2;curveFitting=1;fontFamily=Architects Daughter;fontSource=https%3A%2F%2Ffonts.googleapis.com%2Fcss%3Ffamily%3DArchitects%2BDaughter;fontStyle=1" connectable="0" vertex="1" parent="bHBYjKBn6t6AVG68IqQf-54">
          <mxGeometry relative="1" as="geometry" />
        </mxCell>
        <mxCell id="bHBYjKBn6t6AVG68IqQf-56" value="" style="shape=mxgraph.mockup.containers.marginRect;rectMarginTop=10;strokeColor=#666666;strokeWidth=1;dashed=0;rounded=1;arcSize=5;recursiveResize=0;html=1;whiteSpace=wrap;sketch=1;hachureGap=4;jiggle=2;curveFitting=1;fontFamily=Architects Daughter;fontSource=https%3A%2F%2Ffonts.googleapis.com%2Fcss%3Ffamily%3DArchitects%2BDaughter;" vertex="1" parent="1">
          <mxGeometry x="1860" y="2007" width="760" height="350" as="geometry" />
        </mxCell>
        <mxCell id="bHBYjKBn6t6AVG68IqQf-57" value="&lt;font size=&quot;1&quot; color=&quot;#141414&quot;&gt;&lt;b style=&quot;font-size: 22px;&quot;&gt;Tool Block&lt;/b&gt;&lt;/font&gt;" style="shape=rect;strokeColor=none;fillColor=#008cff;strokeWidth=1;dashed=0;rounded=1;arcSize=20;fontColor=#ffffff;fontSize=17;spacing=2;spacingTop=-2;align=left;autosize=1;spacingLeft=4;resizeWidth=0;resizeHeight=0;perimeter=none;html=1;whiteSpace=wrap;sketch=1;hachureGap=4;jiggle=2;curveFitting=1;fontFamily=Architects Daughter;fontSource=https%3A%2F%2Ffonts.googleapis.com%2Fcss%3Ffamily%3DArchitects%2BDaughter;" vertex="1" parent="bHBYjKBn6t6AVG68IqQf-56">
          <mxGeometry x="5" y="-5" width="135" height="40" as="geometry" />
        </mxCell>
        <mxCell id="bHBYjKBn6t6AVG68IqQf-58" value="&lt;font style=&quot;font-size: 20px;&quot;&gt;Generating text...&lt;/font&gt;" style="shape=mxgraph.mockup.containers.marginRect;rectMarginTop=10;strokeColor=#666666;strokeWidth=1;dashed=0;rounded=1;arcSize=5;recursiveResize=0;html=1;whiteSpace=wrap;sketch=1;hachureGap=4;jiggle=2;curveFitting=1;fontFamily=Architects Daughter;fontSource=https%3A%2F%2Ffonts.googleapis.com%2Fcss%3Ffamily%3DArchitects%2BDaughter;" vertex="1" parent="bHBYjKBn6t6AVG68IqQf-56">
          <mxGeometry x="30" y="155" width="680" height="60" as="geometry" />
        </mxCell>
        <mxCell id="bHBYjKBn6t6AVG68IqQf-59" value="&lt;span style=&quot;font-size: 20px;&quot;&gt;Streaming text...&lt;/span&gt;" style="shape=mxgraph.mockup.containers.marginRect;rectMarginTop=10;strokeColor=#b85450;strokeWidth=1;dashed=0;rounded=1;arcSize=5;recursiveResize=0;html=1;whiteSpace=wrap;sketch=1;hachureGap=4;jiggle=2;curveFitting=1;fontFamily=Architects Daughter;fontSource=https%3A%2F%2Ffonts.googleapis.com%2Fcss%3Ffamily%3DArchitects%2BDaughter;fillColor=#f8cecc;" vertex="1" parent="bHBYjKBn6t6AVG68IqQf-56">
          <mxGeometry x="30" y="250" width="680" height="60" as="geometry" />
        </mxCell>
        <mxCell id="bHBYjKBn6t6AVG68IqQf-60" value="&lt;span style=&quot;font-size: 20px;&quot;&gt;Prompt input&lt;/span&gt;" style="shape=mxgraph.mockup.containers.marginRect;rectMarginTop=10;strokeColor=#b85450;strokeWidth=1;dashed=0;rounded=1;arcSize=5;recursiveResize=0;html=1;whiteSpace=wrap;sketch=1;hachureGap=4;jiggle=2;curveFitting=1;fontFamily=Architects Daughter;fontSource=https%3A%2F%2Ffonts.googleapis.com%2Fcss%3Ffamily%3DArchitects%2BDaughter;fillColor=#f8cecc;" vertex="1" parent="bHBYjKBn6t6AVG68IqQf-56">
          <mxGeometry x="30" y="60" width="680" height="60" as="geometry" />
        </mxCell>
        <UserObject label="margin: 0;&lt;br&gt;height: 0;" placeholders="1" name="Variable" id="bHBYjKBn6t6AVG68IqQf-69">
          <mxCell style="text;html=1;strokeColor=none;fillColor=none;align=center;verticalAlign=middle;whiteSpace=wrap;overflow=hidden;fontFamily=Architects Daughter;fontSource=https%3A%2F%2Ffonts.googleapis.com%2Fcss%3Ffamily%3DArchitects%2BDaughter;fontStyle=1;fontSize=15;labelBackgroundColor=#FF9999;" vertex="1" parent="bHBYjKBn6t6AVG68IqQf-56">
            <mxGeometry x="330" y="28" width="100" height="44" as="geometry" />
          </mxCell>
        </UserObject>
        <UserObject label="margin: 0;&lt;br&gt;height: 0;" placeholders="1" name="Variable" id="bHBYjKBn6t6AVG68IqQf-96">
          <mxCell style="text;html=1;strokeColor=none;fillColor=none;align=center;verticalAlign=middle;whiteSpace=wrap;overflow=hidden;fontFamily=Architects Daughter;fontSource=https%3A%2F%2Ffonts.googleapis.com%2Fcss%3Ffamily%3DArchitects%2BDaughter;fontStyle=1;fontSize=15;labelBackgroundColor=#FF9999;" vertex="1" parent="bHBYjKBn6t6AVG68IqQf-56">
            <mxGeometry x="330" y="220" width="100" height="44" as="geometry" />
          </mxCell>
        </UserObject>
        <UserObject label="margin: 0;&lt;br&gt;height: 0;" placeholders="1" name="Variable" id="bHBYjKBn6t6AVG68IqQf-62">
          <mxCell style="text;html=1;strokeColor=none;fillColor=none;align=center;verticalAlign=middle;whiteSpace=wrap;overflow=hidden;fontFamily=Architects Daughter;fontSource=https%3A%2F%2Ffonts.googleapis.com%2Fcss%3Ffamily%3DArchitects%2BDaughter;fontStyle=1;fontSize=15;labelBackgroundColor=#FF9999;" vertex="1" parent="1">
            <mxGeometry x="1050" y="1970" width="100" height="43" as="geometry" />
          </mxCell>
        </UserObject>
        <mxCell id="bHBYjKBn6t6AVG68IqQf-70" value="" style="endArrow=classic;html=1;rounded=0;sketch=1;hachureGap=4;jiggle=2;curveFitting=1;fontFamily=Architects Daughter;fontSource=https%3A%2F%2Ffonts.googleapis.com%2Fcss%3Ffamily%3DArchitects%2BDaughter;fontSize=12;startSize=8;endSize=8;curved=1;exitX=0.997;exitY=0.571;exitDx=0;exitDy=0;exitPerimeter=0;entryX=-0.005;entryY=0.544;entryDx=0;entryDy=0;entryPerimeter=0;" edge="1" parent="1" source="bHBYjKBn6t6AVG68IqQf-36" target="bHBYjKBn6t6AVG68IqQf-72">
          <mxGeometry relative="1" as="geometry">
            <mxPoint x="2630" y="1020" as="sourcePoint" />
            <mxPoint x="3002" y="1022" as="targetPoint" />
          </mxGeometry>
        </mxCell>
        <mxCell id="bHBYjKBn6t6AVG68IqQf-71" value="Streaming..." style="edgeLabel;resizable=0;html=1;fontSize=26;;align=center;verticalAlign=middle;sketch=1;hachureGap=4;jiggle=2;curveFitting=1;fontFamily=Architects Daughter;fontSource=https%3A%2F%2Ffonts.googleapis.com%2Fcss%3Ffamily%3DArchitects%2BDaughter;fontStyle=1" connectable="0" vertex="1" parent="bHBYjKBn6t6AVG68IqQf-70">
          <mxGeometry relative="1" as="geometry" />
        </mxCell>
        <mxCell id="bHBYjKBn6t6AVG68IqQf-72" value="" style="shape=mxgraph.mockup.containers.marginRect;rectMarginTop=10;strokeColor=#666666;strokeWidth=1;dashed=0;rounded=1;arcSize=5;recursiveResize=0;html=1;whiteSpace=wrap;sketch=1;hachureGap=4;jiggle=2;curveFitting=1;fontFamily=Architects Daughter;fontSource=https%3A%2F%2Ffonts.googleapis.com%2Fcss%3Ffamily%3DArchitects%2BDaughter;" vertex="1" parent="1">
          <mxGeometry x="3010" y="830" width="760" height="350" as="geometry" />
        </mxCell>
        <mxCell id="bHBYjKBn6t6AVG68IqQf-73" value="&lt;font size=&quot;1&quot; color=&quot;#141414&quot;&gt;&lt;b style=&quot;font-size: 22px;&quot;&gt;Tool Block&lt;/b&gt;&lt;/font&gt;" style="shape=rect;strokeColor=none;fillColor=#008cff;strokeWidth=1;dashed=0;rounded=1;arcSize=20;fontColor=#ffffff;fontSize=17;spacing=2;spacingTop=-2;align=left;autosize=1;spacingLeft=4;resizeWidth=0;resizeHeight=0;perimeter=none;html=1;whiteSpace=wrap;sketch=1;hachureGap=4;jiggle=2;curveFitting=1;fontFamily=Architects Daughter;fontSource=https%3A%2F%2Ffonts.googleapis.com%2Fcss%3Ffamily%3DArchitects%2BDaughter;" vertex="1" parent="bHBYjKBn6t6AVG68IqQf-72">
          <mxGeometry x="5" y="-5" width="135" height="40" as="geometry" />
        </mxCell>
        <mxCell id="bHBYjKBn6t6AVG68IqQf-74" value="&lt;font style=&quot;font-size: 20px;&quot;&gt;Generating text...&lt;/font&gt;" style="shape=mxgraph.mockup.containers.marginRect;rectMarginTop=10;strokeColor=#b85450;strokeWidth=1;dashed=0;rounded=1;arcSize=5;recursiveResize=0;html=1;whiteSpace=wrap;sketch=1;hachureGap=4;jiggle=2;curveFitting=1;fontFamily=Architects Daughter;fontSource=https%3A%2F%2Ffonts.googleapis.com%2Fcss%3Ffamily%3DArchitects%2BDaughter;fillColor=#f8cecc;" vertex="1" parent="bHBYjKBn6t6AVG68IqQf-72">
          <mxGeometry x="30" y="155" width="680" height="60" as="geometry" />
        </mxCell>
        <mxCell id="bHBYjKBn6t6AVG68IqQf-75" value="&lt;span style=&quot;font-size: 20px;&quot;&gt;Streaming text...&lt;/span&gt;" style="shape=mxgraph.mockup.containers.marginRect;rectMarginTop=10;strokeWidth=1;dashed=0;rounded=1;arcSize=5;recursiveResize=0;html=1;whiteSpace=wrap;sketch=1;hachureGap=4;jiggle=2;curveFitting=1;fontFamily=Architects Daughter;fontSource=https%3A%2F%2Ffonts.googleapis.com%2Fcss%3Ffamily%3DArchitects%2BDaughter;" vertex="1" parent="bHBYjKBn6t6AVG68IqQf-72">
          <mxGeometry x="30" y="250" width="680" height="60" as="geometry" />
        </mxCell>
        <mxCell id="bHBYjKBn6t6AVG68IqQf-76" value="&lt;span style=&quot;font-size: 20px;&quot;&gt;Prompt input&lt;/span&gt;" style="shape=mxgraph.mockup.containers.marginRect;rectMarginTop=10;strokeColor=#b85450;strokeWidth=1;dashed=0;rounded=1;arcSize=5;recursiveResize=0;html=1;whiteSpace=wrap;sketch=1;hachureGap=4;jiggle=2;curveFitting=1;fontFamily=Architects Daughter;fontSource=https%3A%2F%2Ffonts.googleapis.com%2Fcss%3Ffamily%3DArchitects%2BDaughter;fillColor=#f8cecc;" vertex="1" parent="bHBYjKBn6t6AVG68IqQf-72">
          <mxGeometry x="30" y="60" width="680" height="60" as="geometry" />
        </mxCell>
        <UserObject label="height: 0;&lt;br&gt;opacity: 0;" placeholders="1" name="Variable" id="bHBYjKBn6t6AVG68IqQf-77">
          <mxCell style="text;html=1;strokeColor=none;fillColor=none;align=center;verticalAlign=middle;whiteSpace=wrap;overflow=hidden;fontFamily=Architects Daughter;fontSource=https%3A%2F%2Ffonts.googleapis.com%2Fcss%3Ffamily%3DArchitects%2BDaughter;fontStyle=1;fontSize=15;labelBackgroundColor=#FF9999;" vertex="1" parent="bHBYjKBn6t6AVG68IqQf-72">
            <mxGeometry x="320" y="30" width="100" height="44" as="geometry" />
          </mxCell>
        </UserObject>
        <mxCell id="bHBYjKBn6t6AVG68IqQf-78" value="" style="endArrow=classic;html=1;rounded=0;sketch=1;hachureGap=4;jiggle=2;curveFitting=1;fontFamily=Architects Daughter;fontSource=https%3A%2F%2Ffonts.googleapis.com%2Fcss%3Ffamily%3DArchitects%2BDaughter;fontSize=12;startSize=8;endSize=8;curved=1;exitX=0.997;exitY=0.544;exitDx=0;exitDy=0;exitPerimeter=0;entryX=0;entryY=0.54;entryDx=0;entryDy=0;entryPerimeter=0;" edge="1" parent="1" source="bHBYjKBn6t6AVG68IqQf-48" target="bHBYjKBn6t6AVG68IqQf-88">
          <mxGeometry relative="1" as="geometry">
            <mxPoint x="2622" y="1610" as="sourcePoint" />
            <mxPoint x="3010" y="1610" as="targetPoint" />
          </mxGeometry>
        </mxCell>
        <mxCell id="bHBYjKBn6t6AVG68IqQf-79" value="Streaming..." style="edgeLabel;resizable=0;html=1;fontSize=26;;align=center;verticalAlign=middle;sketch=1;hachureGap=4;jiggle=2;curveFitting=1;fontFamily=Architects Daughter;fontSource=https%3A%2F%2Ffonts.googleapis.com%2Fcss%3Ffamily%3DArchitects%2BDaughter;fontStyle=1" connectable="0" vertex="1" parent="bHBYjKBn6t6AVG68IqQf-78">
          <mxGeometry relative="1" as="geometry" />
        </mxCell>
        <mxCell id="bHBYjKBn6t6AVG68IqQf-80" value="" style="endArrow=classic;html=1;rounded=0;sketch=1;hachureGap=4;jiggle=2;curveFitting=1;fontFamily=Architects Daughter;fontSource=https%3A%2F%2Ffonts.googleapis.com%2Fcss%3Ffamily%3DArchitects%2BDaughter;fontSize=12;startSize=8;endSize=8;curved=1;exitX=0.996;exitY=0.542;exitDx=0;exitDy=0;exitPerimeter=0;entryX=-0.002;entryY=0.519;entryDx=0;entryDy=0;entryPerimeter=0;" edge="1" parent="1" source="bHBYjKBn6t6AVG68IqQf-56" target="bHBYjKBn6t6AVG68IqQf-82">
          <mxGeometry relative="1" as="geometry">
            <mxPoint x="2622" y="2195" as="sourcePoint" />
            <mxPoint x="3010" y="2195" as="targetPoint" />
          </mxGeometry>
        </mxCell>
        <mxCell id="bHBYjKBn6t6AVG68IqQf-81" value="Streaming..." style="edgeLabel;resizable=0;html=1;fontSize=26;;align=center;verticalAlign=middle;sketch=1;hachureGap=4;jiggle=2;curveFitting=1;fontFamily=Architects Daughter;fontSource=https%3A%2F%2Ffonts.googleapis.com%2Fcss%3Ffamily%3DArchitects%2BDaughter;fontStyle=1" connectable="0" vertex="1" parent="bHBYjKBn6t6AVG68IqQf-80">
          <mxGeometry relative="1" as="geometry" />
        </mxCell>
        <mxCell id="bHBYjKBn6t6AVG68IqQf-82" value="" style="shape=mxgraph.mockup.containers.marginRect;rectMarginTop=10;strokeColor=#666666;strokeWidth=1;dashed=0;rounded=1;arcSize=5;recursiveResize=0;html=1;whiteSpace=wrap;sketch=1;hachureGap=4;jiggle=2;curveFitting=1;fontFamily=Architects Daughter;fontSource=https%3A%2F%2Ffonts.googleapis.com%2Fcss%3Ffamily%3DArchitects%2BDaughter;" vertex="1" parent="1">
          <mxGeometry x="3010" y="2013" width="760" height="350" as="geometry" />
        </mxCell>
        <mxCell id="bHBYjKBn6t6AVG68IqQf-83" value="&lt;font size=&quot;1&quot; color=&quot;#141414&quot;&gt;&lt;b style=&quot;font-size: 22px;&quot;&gt;Tool Block&lt;/b&gt;&lt;/font&gt;" style="shape=rect;strokeColor=none;fillColor=#008cff;strokeWidth=1;dashed=0;rounded=1;arcSize=20;fontColor=#ffffff;fontSize=17;spacing=2;spacingTop=-2;align=left;autosize=1;spacingLeft=4;resizeWidth=0;resizeHeight=0;perimeter=none;html=1;whiteSpace=wrap;sketch=1;hachureGap=4;jiggle=2;curveFitting=1;fontFamily=Architects Daughter;fontSource=https%3A%2F%2Ffonts.googleapis.com%2Fcss%3Ffamily%3DArchitects%2BDaughter;" vertex="1" parent="bHBYjKBn6t6AVG68IqQf-82">
          <mxGeometry x="5" y="-5" width="135" height="40" as="geometry" />
        </mxCell>
        <mxCell id="bHBYjKBn6t6AVG68IqQf-84" value="&lt;font style=&quot;font-size: 20px;&quot;&gt;Generating text...&lt;/font&gt;" style="shape=mxgraph.mockup.containers.marginRect;rectMarginTop=10;strokeWidth=1;dashed=0;rounded=1;arcSize=5;recursiveResize=0;html=1;whiteSpace=wrap;sketch=1;hachureGap=4;jiggle=2;curveFitting=1;fontFamily=Architects Daughter;fontSource=https%3A%2F%2Ffonts.googleapis.com%2Fcss%3Ffamily%3DArchitects%2BDaughter;" vertex="1" parent="bHBYjKBn6t6AVG68IqQf-82">
          <mxGeometry x="30" y="155" width="680" height="60" as="geometry" />
        </mxCell>
        <mxCell id="bHBYjKBn6t6AVG68IqQf-85" value="&lt;span style=&quot;font-size: 20px;&quot;&gt;Streaming text...&lt;/span&gt;" style="shape=mxgraph.mockup.containers.marginRect;rectMarginTop=10;strokeWidth=1;dashed=0;rounded=1;arcSize=5;recursiveResize=0;html=1;whiteSpace=wrap;sketch=1;hachureGap=4;jiggle=2;curveFitting=1;fontFamily=Architects Daughter;fontSource=https%3A%2F%2Ffonts.googleapis.com%2Fcss%3Ffamily%3DArchitects%2BDaughter;fillColor=#f8cecc;strokeColor=#b85450;" vertex="1" parent="bHBYjKBn6t6AVG68IqQf-82">
          <mxGeometry x="30" y="250" width="680" height="60" as="geometry" />
        </mxCell>
        <mxCell id="bHBYjKBn6t6AVG68IqQf-86" value="&lt;span style=&quot;font-size: 20px;&quot;&gt;Prompt input&lt;/span&gt;" style="shape=mxgraph.mockup.containers.marginRect;rectMarginTop=10;strokeColor=#b85450;strokeWidth=1;dashed=0;rounded=1;arcSize=5;recursiveResize=0;html=1;whiteSpace=wrap;sketch=1;hachureGap=4;jiggle=2;curveFitting=1;fontFamily=Architects Daughter;fontSource=https%3A%2F%2Ffonts.googleapis.com%2Fcss%3Ffamily%3DArchitects%2BDaughter;fillColor=#f8cecc;" vertex="1" parent="bHBYjKBn6t6AVG68IqQf-82">
          <mxGeometry x="30" y="60" width="680" height="60" as="geometry" />
        </mxCell>
        <UserObject label="margin: 0;&lt;br&gt;height: 0;" placeholders="1" name="Variable" id="bHBYjKBn6t6AVG68IqQf-87">
          <mxCell style="text;html=1;strokeColor=none;fillColor=none;align=center;verticalAlign=middle;whiteSpace=wrap;overflow=hidden;fontFamily=Architects Daughter;fontSource=https%3A%2F%2Ffonts.googleapis.com%2Fcss%3Ffamily%3DArchitects%2BDaughter;fontStyle=1;fontSize=15;labelBackgroundColor=#FF9999;" vertex="1" parent="bHBYjKBn6t6AVG68IqQf-82">
            <mxGeometry x="320" y="28" width="100" height="44" as="geometry" />
          </mxCell>
        </UserObject>
        <UserObject label="margin: 0;&lt;br&gt;height: 0;" placeholders="1" name="Variable" id="bHBYjKBn6t6AVG68IqQf-104">
          <mxCell style="text;html=1;strokeColor=none;fillColor=none;align=center;verticalAlign=middle;whiteSpace=wrap;overflow=hidden;fontFamily=Architects Daughter;fontSource=https%3A%2F%2Ffonts.googleapis.com%2Fcss%3Ffamily%3DArchitects%2BDaughter;fontStyle=1;fontSize=15;labelBackgroundColor=#FF9999;" vertex="1" parent="bHBYjKBn6t6AVG68IqQf-82">
            <mxGeometry x="320" y="215" width="100" height="44" as="geometry" />
          </mxCell>
        </UserObject>
        <mxCell id="bHBYjKBn6t6AVG68IqQf-88" value="" style="shape=mxgraph.mockup.containers.marginRect;rectMarginTop=10;strokeColor=#666666;strokeWidth=1;dashed=0;rounded=1;arcSize=5;recursiveResize=0;html=1;whiteSpace=wrap;sketch=1;hachureGap=4;jiggle=2;curveFitting=1;fontFamily=Architects Daughter;fontSource=https%3A%2F%2Ffonts.googleapis.com%2Fcss%3Ffamily%3DArchitects%2BDaughter;" vertex="1" parent="1">
          <mxGeometry x="3010" y="1420" width="760" height="350" as="geometry" />
        </mxCell>
        <mxCell id="bHBYjKBn6t6AVG68IqQf-89" value="&lt;font size=&quot;1&quot; color=&quot;#141414&quot;&gt;&lt;b style=&quot;font-size: 22px;&quot;&gt;Tool Block&lt;/b&gt;&lt;/font&gt;" style="shape=rect;strokeColor=none;fillColor=#008cff;strokeWidth=1;dashed=0;rounded=1;arcSize=20;fontColor=#ffffff;fontSize=17;spacing=2;spacingTop=-2;align=left;autosize=1;spacingLeft=4;resizeWidth=0;resizeHeight=0;perimeter=none;html=1;whiteSpace=wrap;sketch=1;hachureGap=4;jiggle=2;curveFitting=1;fontFamily=Architects Daughter;fontSource=https%3A%2F%2Ffonts.googleapis.com%2Fcss%3Ffamily%3DArchitects%2BDaughter;" vertex="1" parent="bHBYjKBn6t6AVG68IqQf-88">
          <mxGeometry x="5" y="-5" width="135" height="40" as="geometry" />
        </mxCell>
        <mxCell id="bHBYjKBn6t6AVG68IqQf-90" value="&lt;font style=&quot;font-size: 20px;&quot;&gt;Generating text...&lt;/font&gt;" style="shape=mxgraph.mockup.containers.marginRect;rectMarginTop=10;strokeWidth=1;dashed=0;rounded=1;arcSize=5;recursiveResize=0;html=1;whiteSpace=wrap;sketch=1;hachureGap=4;jiggle=2;curveFitting=1;fontFamily=Architects Daughter;fontSource=https%3A%2F%2Ffonts.googleapis.com%2Fcss%3Ffamily%3DArchitects%2BDaughter;" vertex="1" parent="bHBYjKBn6t6AVG68IqQf-88">
          <mxGeometry x="30" y="155" width="680" height="60" as="geometry" />
        </mxCell>
        <mxCell id="bHBYjKBn6t6AVG68IqQf-91" value="&lt;span style=&quot;font-size: 20px;&quot;&gt;Streaming text...&lt;/span&gt;" style="shape=mxgraph.mockup.containers.marginRect;rectMarginTop=10;strokeWidth=1;dashed=0;rounded=1;arcSize=5;recursiveResize=0;html=1;whiteSpace=wrap;sketch=1;hachureGap=4;jiggle=2;curveFitting=1;fontFamily=Architects Daughter;fontSource=https%3A%2F%2Ffonts.googleapis.com%2Fcss%3Ffamily%3DArchitects%2BDaughter;fillColor=#f8cecc;strokeColor=#b85450;" vertex="1" parent="bHBYjKBn6t6AVG68IqQf-88">
          <mxGeometry x="30" y="250" width="680" height="60" as="geometry" />
        </mxCell>
        <mxCell id="bHBYjKBn6t6AVG68IqQf-92" value="&lt;span style=&quot;font-size: 20px;&quot;&gt;Prompt input&lt;/span&gt;" style="shape=mxgraph.mockup.containers.marginRect;rectMarginTop=10;strokeWidth=1;dashed=0;rounded=1;arcSize=5;recursiveResize=0;html=1;whiteSpace=wrap;sketch=1;hachureGap=4;jiggle=2;curveFitting=1;fontFamily=Architects Daughter;fontSource=https%3A%2F%2Ffonts.googleapis.com%2Fcss%3Ffamily%3DArchitects%2BDaughter;" vertex="1" parent="bHBYjKBn6t6AVG68IqQf-88">
          <mxGeometry x="30" y="60" width="680" height="60" as="geometry" />
        </mxCell>
        <UserObject label="margin: 0;&lt;br&gt;height: 0;" placeholders="1" name="Variable" id="bHBYjKBn6t6AVG68IqQf-103">
          <mxCell style="text;html=1;strokeColor=none;fillColor=none;align=center;verticalAlign=middle;whiteSpace=wrap;overflow=hidden;fontFamily=Architects Daughter;fontSource=https%3A%2F%2Ffonts.googleapis.com%2Fcss%3Ffamily%3DArchitects%2BDaughter;fontStyle=1;fontSize=15;labelBackgroundColor=#FF9999;" vertex="1" parent="bHBYjKBn6t6AVG68IqQf-88">
            <mxGeometry x="320" y="221" width="100" height="44" as="geometry" />
          </mxCell>
        </UserObject>
      </root>
    </mxGraphModel>
  </diagram>
</mxfile>
